<?xml version="1.0" encoding="UTF-8"?>
<svg width="21px" height="23px" viewBox="0 0 21 23" version="1.1" xmlns="http://www.w3.org/2000/svg" xmlns:xlink="http://www.w3.org/1999/xlink">
    <!-- Generator: Sketch 44.1 (41455) - http://www.bohemiancoding.com/sketch -->
    <title>Shape</title>
    <desc>Created with Sketch.</desc>
    <defs></defs>
    <g id="Page-1" stroke="none" stroke-width="1" fill="none" fill-rule="evenodd">
        <g id="Panier" transform="translate(-1022.000000, -423.000000)" fill-rule="nonzero" fill="#1569BD">
            <g id="PASSER-LA-COMMANDE" transform="translate(990.000000, 413.000000)">
                <g id="text" transform="translate(32.727273, 6.818182)">
                    <path d="M1.53272997,13.7405477 L18.4860563,13.7405477 C19.3257257,13.7405477 20.0187862,14.4336083 20.0187862,15.2732777 L20.0187862,24.3763609 C20.0187862,25.2160304 19.3257257,25.9090909 18.4860563,25.9090909 L1.53272997,25.9090909 C0.693060509,25.9090909 0,25.2160304 0,24.3763609 L0,15.2732777 C0,14.4336083 0.693060509,13.7405477 1.53272997,13.7405477 L1.53272997,13.7405477 Z M11.7553725,18.6052994 C11.7553725,16.5261179 8.27674184,16.5661021 8.27674184,18.6052994 C8.27674184,19.3250161 8.56995975,19.6315621 9.0231147,19.9114519 C8.92981809,20.3779349 9.00978661,21.5508066 9.00978661,22.08393 C9.00978661,23.3234421 10.8757187,23.3234421 10.8757187,22.08393 C10.8757187,21.470838 10.9290311,20.5778562 10.8757187,19.9914204 C11.3955141,19.7248587 11.7553725,19.3516723 11.7553725,18.6052994 L11.7553725,18.6052994 Z M13.6479608,12.6876289 C13.6479608,5.7703519 6.35749736,5.81033616 6.35749736,12.8075817 C5.14464147,12.8075817 3.93178558,12.8075817 2.71892969,12.8075817 C2.71892969,1.22547433 17.2865285,1.18549007 17.2865285,12.6876289 C16.0736726,12.6876289 17.2998565,12.6876289 13.6479608,12.6876289 Z" id="Shape"></path>
                </g>
            </g>
        </g>
    </g>
</svg>