<?xml version="1.0" encoding="UTF-8"?>
<svg width="229px" height="27px" viewBox="0 0 229 27" version="1.1" xmlns="http://www.w3.org/2000/svg" xmlns:xlink="http://www.w3.org/1999/xlink">
    <!-- Generator: Sketch 44.1 (41455) - http://www.bohemiancoding.com/sketch -->
    <title>Mister Good Surf MGS</title>
    <desc>Created with Sketch.</desc>
    <defs></defs>
    <g id="Page-1" stroke="none" stroke-width="1" fill="none" fill-rule="evenodd">
        <g id="HomePage" transform="translate(-51.000000, -37.000000)" fill="#222222" stroke="#000000">
            <g id="HEADER">
                <g id="Nav" transform="translate(51.000000, 30.000000)">
                    <path d="M16.475,27 L19.1,8.6 L15.5,8.6 L10,21.775 L10.575,8.6 C9.975,8.375 9.325,8.25 8.675,8.25 C4.875,8.25 0.725,11.7 0.725,14.9 C0.725,16.55 1.775,17.175 3.4,17.175 C3.375,16.95 3.05,16.775 3.05,15.45 C3.05,12.6 4.55,10.65 7.025,9.825 L0.675,27 L2.675,27 L6.85,15.725 L6.35,27 L9.775,27 L14.475,15.775 L12.875,27 L16.475,27 Z M21.5,11.175 C21.5,12.275 22.375,13.15 23.475,13.15 C24.575,13.15 25.475,12.275 25.475,11.175 C25.475,10.075 24.575,9.175 23.475,9.175 C22.375,9.175 21.5,10.075 21.5,11.175 Z M21,14.5 L24.6,14.5 L22.8,23 C22.725,23.325 22.7,23.575 22.7,23.8 C22.7,24.5 23.025,24.725 23.725,24.725 C24.7,24.725 25.6,23.775 25.975,22.525 L27.025,22.525 C25.6,26.6 23.125,27.15 21.775,27.15 C20.275,27.15 19.1,26.25 19.1,24.15 C19.1,23.675 19.175,23.125 19.3,22.525 L21,14.5 Z M36.15,22.525 L37.2,22.525 C35.9,24.025 34.525,24.975 33.375,25.65 C32.325,26.75 30.725,27.15 29.45,27.15 C26.9,27.15 25.8,25.475 25.8,23.95 C25.8,22.8 26.45,21.95 27.125,21.625 C28.525,19.15 29.425,16.675 30.2,14.225 L33.9,13.725 C34.2,20.2 34.45,21.175 34.45,22.825 C34.45,23.175 34.425,23.475 34.35,23.775 C35.025,23.375 35.675,22.925 36.15,22.525 Z M28.9,22.525 C28.9,23.125 28.45,23.75 27.8,23.75 C27.55,23.75 27.25,23.675 27.125,23.425 C27.125,24.6 27.55,25.175 28.65,25.175 C29.75,25.175 30.825,24.6 30.825,22.85 C30.825,21.55 30.6,20.775 30.35,16.925 C29.85,18.55 29.15,20.05 28.325,21.65 C28.65,21.8 28.9,22.1 28.9,22.525 Z M39.225,11.05 L42.925,10.55 L42.075,14.5 L43.575,14.5 L43.375,15.5 L41.875,15.5 L40.275,23 C40.2,23.325 40.175,23.575 40.175,23.8 C40.175,24.5 40.5,24.725 41.2,24.725 C42.175,24.725 43.075,23.775 43.45,22.525 L44.5,22.525 C43.075,26.6 40.6,27.15 39.25,27.15 C37.75,27.15 36.575,26.25 36.575,24.15 C36.575,23.675 36.65,23.125 36.775,22.525 L38.275,15.5 L37.45,15.5 L37.65,14.5 L38.475,14.5 L39.225,11.05 Z M47.45,22.95 C47.45,24.65 48.05,25.05 49.25,25.05 C51.225,25.05 52.425,23.95 53.675,22.525 L54.525,22.525 C53.1,24.825 50.975,27.15 47.65,27.15 C45.3,27.15 43.75,26 43.75,23.175 C43.75,20.3 45.375,14.275 50.5,14.275 C52.725,14.275 53.25,15.425 53.25,16.675 C53.25,19.55 50.5,21.775 47.5,21.95 C47.475,22.3 47.45,22.65 47.45,22.95 Z M51.325,16.625 C51.325,16 51.175,15.6 50.7,15.6 C49.425,15.6 48.2,18.275 47.7,20.75 C49.625,20.625 51.325,18.7 51.325,16.625 Z M56,14.5 L59.6,14.5 L59.275,16.05 C60.15,15.3 61.1,14.5 62.3,14.5 C63.425,14.5 64.025,15.425 64.025,16.375 C64.025,17.25 63.45,18.2 62.225,18.2 C60.825,18.2 61.525,16.55 60.775,16.55 C60.025,16.55 59.575,16.925 58.95,17.5 L56.95,27 L53.35,27 L56,14.5 Z M80.8,16.525 L79.725,21.275 C79.2,21.975 78.525,22.2 77.6,22.2 C75.525,22.2 74.7,20.3 74.7,18.075 C74.7,14.1 77.5,9.425 80.25,9.425 C81.85,9.425 81.975,10.8 81.975,11.2 C81.975,11.825 81.5,13.075 80.875,13.25 C81.35,13.8 82.2,13.9 82.6,13.9 C83.875,13.9 84.35,12.925 84.35,11.6 C84.35,9.175 82.025,8.25 79.7,8.25 C74.125,8.25 70.85,13.1 70.85,17.875 C70.85,21.325 72.15,24.275 76.225,24.275 C76.45,24.275 77.825,24.15 79.275,23.375 L78.275,27.85 C77.7,30.425 76.9,30.925 75.775,30.925 C74.725,30.925 74.2,30.1 74.2,29.225 C74.2,28.3 74.8,27.325 75.95,27.325 C76.45,27.325 76.825,27.45 77.45,27.975 C77.55,27.6 77.6,27.25 77.6,26.975 C77.6,25.375 76.15,25.3 75.15,25.3 C73.175,25.3 72.1,27.025 72.1,28.725 C72.1,30.45 73.2,32.175 75.575,32.175 C79.675,32.175 81.15,29.775 81.975,25.95 L84.025,16.55 L80.8,16.525 Z M91.95,14.275 C94.1,14.275 95.15,15.65 95.15,18.275 C95.25,18.325 95.35,18.325 95.425,18.325 C96.575,18.325 98.2,17.575 99.275,16.825 L99.5,17.5 C98.55,18.525 96.9,19.275 95.075,19.575 C94.675,24.2 92.175,27.1 89.1,27.1 C86.775,27.1 85.1,26 85.1,23.15 C85.1,20.275 86.8,14.275 91.95,14.275 Z M90.1,24.85 C91.325,24.85 92.6,22.6 93,19.65 C92.475,19.525 92.325,19.1 92.325,18.6 C92.325,17.9 92.65,17.45 93.1,17.25 C93.05,16.2 92.8,15.8 92.15,15.8 C90.375,15.8 88.825,20.375 88.825,22.825 C88.825,24.475 89.15,24.85 90.1,24.85 Z M103.55,14.275 C105.7,14.275 106.75,15.65 106.75,18.275 C106.85,18.325 106.95,18.325 107.025,18.325 C108.175,18.325 109.8,17.575 110.875,16.825 L111.1,17.5 C110.15,18.525 108.5,19.275 106.675,19.575 C106.275,24.2 103.775,27.1 100.7,27.1 C98.375,27.1 96.7,26 96.7,23.15 C96.7,20.275 98.4,14.275 103.55,14.275 Z M101.7,24.85 C102.925,24.85 104.2,22.6 104.6,19.65 C104.075,19.525 103.925,19.1 103.925,18.6 C103.925,17.9 104.25,17.45 104.7,17.25 C104.65,16.2 104.4,15.8 103.75,15.8 C101.975,15.8 100.425,20.375 100.425,22.825 C100.425,24.475 100.75,24.85 101.7,24.85 Z M121.7,9.5 L118.825,23 C118.775,23.25 118.725,23.5 118.725,23.725 C118.725,24.3 118.975,24.725 119.75,24.725 C120.2,24.725 120.4,24.65 120.55,24.575 C120.425,26.35 119.15,27.15 117.8,27.15 C116.525,27.15 115.5,26.525 115.2,25.075 C114.45,26.15 113.3,27.15 111.65,27.15 C109.95,27.15 108.325,26.1 108.325,23.125 C108.325,19.75 110.4,14.375 114.75,14.375 C116.175,14.375 116.775,14.925 116.775,15.65 L116.775,15.75 L118,10 L121.7,9.5 Z M115.225,22.925 L116.55,16.8 C116.5,16.5 116.275,15.925 115.525,15.925 C113.4,15.925 112.025,20.425 112.025,22.775 C112.025,24.7 112.825,24.725 113.275,24.725 C113.925,24.725 114.95,24.15 115.225,22.925 Z M140.825,11.25 C140.825,8.5 137.975,8.25 136.8,8.25 C133.575,8.25 131.025,10.125 131.025,12.725 C131.025,16.4 136.15,17.925 136.15,22.2 C136.15,24.3 134.925,25.525 133.25,25.525 C131.65,25.525 130.85,24.375 130.85,23.125 C130.85,21.4 132.425,20.775 133.775,20.775 C133.7,19.475 132.45,19.125 131.575,19.125 C129.825,19.125 127.9,20.525 127.9,23.225 C127.9,26.275 130.35,27.525 133.2,27.525 C136.825,27.525 140.225,25.475 140.225,21.275 C140.225,15.875 134.6,15.375 134.6,11.7 C134.6,10.2 135.525,9.425 136.9,9.425 C138.275,9.425 138.75,10.225 138.75,11.1 C138.75,11.925 138.3,12.85 137.625,13.25 C137.95,13.625 138.325,13.775 138.775,13.775 C140.025,13.775 140.825,12.7 140.825,11.25 Z M149.975,14.5 L153.575,14.5 L151.775,23 C151.7,23.325 151.675,23.575 151.675,23.8 C151.675,24.5 152,24.725 152.7,24.725 C153.675,24.725 154.35,23.775 154.725,22.525 L155.775,22.525 C154.35,26.6 152.1,27.15 150.75,27.15 C149.325,27.15 148.425,26.325 148.275,24.775 C147.025,26.825 145.625,27.15 144.575,27.15 C143.075,27.15 141.9,26.25 141.9,24.15 C141.9,23.675 141.975,23.125 142.1,22.525 L143.8,14.5 L147.4,14.5 L145.6,23 C145.55,23.25 145.525,23.475 145.525,23.7 C145.525,24.275 145.725,24.725 146.275,24.725 C147.25,24.725 147.9,23.775 148.275,22.525 L149.975,14.5 Z M157.05,14.5 L160.65,14.5 L160.325,16.05 C161.2,15.3 162.15,14.5 163.35,14.5 C164.475,14.5 165.075,15.425 165.075,16.375 C165.075,17.25 164.5,18.2 163.275,18.2 C161.875,18.2 162.575,16.55 161.825,16.55 C161.075,16.55 160.625,16.925 160,17.5 L158,27 L154.4,27 L157.05,14.5 Z M174.925,12 L173.75,12 C173.775,11.75 173.8,11.55 173.8,11.325 C173.8,10.75 173.35,10.475 172.85,10.475 C172.3,10.475 171.45,10.85 171.1,12.525 L170.675,14.5 L172.5,14.5 L172.325,15.5 L170.475,15.5 L167.6,29 C166.85,32.575 164.775,33.25 163.125,33.25 C161.6,33.25 160.175,32.175 160.175,30.55 C160.175,28.25 162.1,27.525 164.475,26.8 L167.5,12.525 C168.25,8.95 170.4,8.275 172.05,8.275 C173.575,8.275 175,9.35 175,10.975 C175,11.375 174.975,11.7 174.925,12 Z M161.55,30.2 C161.55,30.55 162,31.025 162.55,31.025 C163.075,31.025 163.65,30.55 163.975,29.075 L164.3,27.625 C162.725,28.15 161.55,28.85 161.55,30.2 Z M196.2,27 L198.825,8.6 L195.225,8.6 L189.725,21.775 L190.3,8.6 C189.7,8.375 189.05,8.25 188.4,8.25 C184.6,8.25 180.45,11.7 180.45,14.9 C180.45,16.55 181.5,17.175 183.125,17.175 C183.1,16.95 182.775,16.775 182.775,15.45 C182.775,12.6 184.275,10.65 186.75,9.825 L180.4,27 L182.4,27 L186.575,15.725 L186.075,27 L189.5,27 L194.2,15.775 L192.6,27 L196.2,27 Z M209.45,16.525 L208.375,21.275 C207.85,21.975 207.175,22.2 206.25,22.2 C204.175,22.2 203.35,20.3 203.35,18.075 C203.35,14.1 206.15,9.425 208.9,9.425 C210.5,9.425 210.625,10.8 210.625,11.2 C210.625,11.825 210.15,13.075 209.525,13.25 C210,13.8 210.85,13.9 211.25,13.9 C212.525,13.9 213,12.925 213,11.6 C213,9.175 210.675,8.25 208.35,8.25 C202.775,8.25 199.5,13.1 199.5,17.875 C199.5,21.325 200.8,24.275 204.875,24.275 C205.1,24.275 206.475,24.15 207.925,23.375 L206.925,27.85 C206.35,30.425 205.55,30.925 204.425,30.925 C203.375,30.925 202.85,30.1 202.85,29.225 C202.85,28.3 203.45,27.325 204.6,27.325 C205.1,27.325 205.475,27.45 206.1,27.975 C206.2,27.6 206.25,27.25 206.25,26.975 C206.25,25.375 204.8,25.3 203.8,25.3 C201.825,25.3 200.75,27.025 200.75,28.725 C200.75,30.45 201.85,32.175 204.225,32.175 C208.325,32.175 209.8,29.775 210.625,25.95 L212.675,16.55 L209.45,16.525 Z M227.7,11.25 C227.7,8.5 224.85,8.25 223.675,8.25 C220.45,8.25 217.9,10.125 217.9,12.725 C217.9,16.4 223.025,17.925 223.025,22.2 C223.025,24.3 221.8,25.525 220.125,25.525 C218.525,25.525 217.725,24.375 217.725,23.125 C217.725,21.4 219.3,20.775 220.65,20.775 C220.575,19.475 219.325,19.125 218.45,19.125 C216.7,19.125 214.775,20.525 214.775,23.225 C214.775,26.275 217.225,27.525 220.075,27.525 C223.7,27.525 227.1,25.475 227.1,21.275 C227.1,15.875 221.475,15.375 221.475,11.7 C221.475,10.2 222.4,9.425 223.775,9.425 C225.15,9.425 225.625,10.225 225.625,11.1 C225.625,11.925 225.175,12.85 224.5,13.25 C224.825,13.625 225.2,13.775 225.65,13.775 C226.9,13.775 227.7,12.7 227.7,11.25 Z" id="Mister-Good-Surf-MGS"></path>
                </g>
            </g>
        </g>
    </g>
</svg>