<?xml version="1.0" encoding="utf-8"?>
<!-- Generator: Adobe Illustrator 21.0.2, SVG Export Plug-In . SVG Version: 6.00 Build 0)  -->
<svg version="1.1" id="Calque_1" xmlns="http://www.w3.org/2000/svg" xmlns:xlink="http://www.w3.org/1999/xlink" x="0px" y="0px"
	 width="72.5px" height="86.4px" viewBox="0 0 72.5 86.4" style="enable-background:new 0 0 72.5 86.4;" xml:space="preserve">
<g>
	<path d="M36.2,0C25.3,0,16.5,9,16.5,20v4.9H3.3c-1.9,0-3.3,1.4-3.3,3.3v41.7C0,79,7.3,86.4,16.5,86.4H56c9.1,0,16.5-7.3,16.5-16.5
		V28.2c0-1.9-1.4-3.3-3.3-3.3H55.9V20C55.9,9,47.1,0,36.2,0z M23,20c0-7.3,5.9-13.4,13.2-13.4s13.2,6,13.2,13.4v4.9H23V20z"/>
</g>
</svg>
